<svg xmlns="http://www.w3.org/2000/svg" xmlns:xlink="http://www.w3.org/1999/xlink" width="800" height="800" viewBox="0 0 800 1800">
  <defs>
    <filter id="Bg_back1" x="0" y="0" width="1263.233" height="1457.028" filterUnits="userSpaceOnUse">
      <feOffset dy="3" input="SourceAlpha"/>
      <feGaussianBlur stdDeviation="10" result="blur"/>
      <feFlood flood-opacity="0.161"/>
      <feComposite operator="in" in2="blur"/>
      <feComposite in="SourceGraphic"/>
    </filter>
  </defs>
  <g id="bg-mobile" transform="translate(-1080 -41.972)">
    <path id="Bg_back2" data-name="Bg back2" d="M801,949.672c0-212.522,147.405-392.343,350.4-452.253,8.17-16.975,94.943-191.4,234.479-242.135,146.726-53.355,221.278-229.141,221.278-229.141l397.076,383.451L1723.408,700.4C1770.7,772.8,1798,858.2,1798,949.672c0,261.507-223.187,473.5-498.5,473.5S801,1211.179,801,949.672Z" transform="translate(288 31.828)" fill="#a4a0e5"/>
    <g transform="matrix(1, 0, 0, 1, 1080, 41.97)" filter="url(#Bg_back1)">
      <path id="Bg_back1-2" data-name="Bg back1" d="M801,949.672c0-212.522,147.405-392.343,350.4-452.253,8.17-16.975,94.943-191.4,234.479-242.135,146.726-53.355,221.278-229.141,221.278-229.141l397.076,383.451L1723.408,700.4C1770.7,772.8,1798,858.2,1798,949.672c0,261.507-223.187,473.5-498.5,473.5S801,1211.179,801,949.672Z" transform="translate(-771 0.86)" fill="#7b74ee"/>
    </g>
  </g>
</svg>
