<svg xmlns="http://www.w3.org/2000/svg" width="76.365" height="76.366" viewBox="0 0 76.365 76.366">
  <g id="graphic-design" transform="translate(-0.007 0)">
    <g id="Groupe_5" data-name="Groupe 5" transform="translate(0.006 0)">
      <path id="Tracé_157" data-name="Tracé 157" d="M75.3,10.829,65.541,1.066a3.652,3.652,0,0,0-5.158,0L42,19.448a1.179,1.179,0,0,0,1.667,1.667L62.05,2.733a1.29,1.29,0,0,1,1.824,0L73.638,12.5a1.29,1.29,0,0,1,0,1.824l-2.4,2.4-6.278-6.278A1.179,1.179,0,1,0,63.3,12.106l6.278,6.278-2.737,2.737-2.759-2.759a1.179,1.179,0,0,0-1.667,1.667l2.759,2.759-2.737,2.737-2.759-2.759a1.179,1.179,0,0,0-1.667,1.667l2.759,2.759-2.737,2.737-6.278-6.278a1.179,1.179,0,0,0-1.667,1.667L56.362,31.6l-2.737,2.737-2.759-2.759A1.179,1.179,0,0,0,49.2,33.241L51.958,36l-2.316,2.316L38.054,26.729l2.155-2.155a1.179,1.179,0,0,0-1.667-1.667l-2.155,2.155L14.646,3.321A8.006,8.006,0,0,0,3.324,14.643L25.065,36.384,1.073,60.376a3.652,3.652,0,0,0,0,5.158L10.836,75.3a3.647,3.647,0,0,0,5.158,0L39.987,51.305,41.7,53.014a1.179,1.179,0,0,0,1.667-1.667L41,48.989a1.153,1.153,0,0,0-.367-.367L15.1,23.083l3.161-3.161,1.954,1.954A1.179,1.179,0,0,0,21.88,20.21l-1.954-1.954L23.087,15.1,35.553,27.561v0h0L48.693,40.7a1.06,1.06,0,0,0,.23.231L66.415,58.423l-3.161,3.161L45.607,43.937c-.011-.011-.02-.024-.031-.035l-7.037-7.037c-.012-.012-.024-.022-.036-.033L26.071,24.4A1.179,1.179,0,0,0,24.4,26.068L61.587,63.251l-3.161,3.161-11.2-11.2a1.179,1.179,0,0,0-1.667,1.667L57.593,68.911a1.191,1.191,0,0,0,.407.265L72.24,74.706a1.912,1.912,0,0,0,2.474-2.476L69.179,58a1.192,1.192,0,0,0-.265-.406L51.309,39.983l24-24A3.651,3.651,0,0,0,75.3,10.829ZM38.32,49.639l-2.313,2.312-2.759-2.759a1.179,1.179,0,0,0-1.667,1.667l2.759,2.759L31.6,56.355l-6.278-6.278a1.179,1.179,0,0,0-1.667,1.667l6.278,6.278L27.2,60.76,24.44,58a1.179,1.179,0,0,0-1.667,1.667l2.759,2.759-2.737,2.737L20.036,62.4a1.179,1.179,0,1,0-1.667,1.667l2.759,2.759-2.737,2.737L12.113,63.29a1.179,1.179,0,0,0-1.667,1.667l6.278,6.278-2.4,2.4a1.29,1.29,0,0,1-1.824,0L2.74,63.868a1.291,1.291,0,0,1,0-1.824L26.733,38.051ZM4.991,12.976a5.649,5.649,0,0,1,7.988-7.988L16.7,8.713,8.716,16.7Zm12.436,4.445h0l-3.993,3.993-3.049-3.049,7.988-7.988,3.049,3.049ZM72.151,72.142,60.538,67.634l7.1-7.1Z" transform="translate(-0.006 0)" fill="#6c63ff"/>
    </g>
  </g>
</svg>
