<svg xmlns="http://www.w3.org/2000/svg" width="67.403" height="93.366" viewBox="0 0 67.403 93.366">
  <g id="mobile-app" transform="translate(-68.13)">
    <path id="Tracé_154" data-name="Tracé 154" d="M120.344,61.84a1.906,1.906,0,0,0-1.905,1.905V72.23h-46.5V13.773h46.5v8.768a1.905,1.905,0,0,0,3.811,0V1.905A1.905,1.905,0,0,0,120.344,0H70.035A1.905,1.905,0,0,0,68.13,1.905V91.461a1.906,1.906,0,0,0,1.905,1.905h50.308a1.906,1.906,0,0,0,1.905-1.905V63.745A1.905,1.905,0,0,0,120.344,61.84ZM118.438,3.811V9.963h-46.5V3.811Zm-46.5,85.745V76.041h46.5V89.555Z" fill="#6c63ff"/>
    <ellipse id="Ellipse_28" data-name="Ellipse 28" cx="2.88" cy="2.883" rx="2.88" ry="2.883" transform="translate(92.324 79.78)" fill="#6c63ff"/>
    <path id="Tracé_155" data-name="Tracé 155" d="M159.353,215.639a1.9,1.9,0,0,0-2.446-1.13l-1.227.453a9.333,9.333,0,0,0-.58-.822l.837-1.006a1.906,1.906,0,1,0-2.928-2.44l-.834,1a9.2,9.2,0,0,0-.914-.424l.221-1.284a1.906,1.906,0,1,0-3.756-.647l-.221,1.284a9.082,9.082,0,0,0-1,.094l-.45-1.224a1.906,1.906,0,1,0-3.576,1.319l.452,1.228a9.268,9.268,0,0,0-.822.581l-1-.837a1.907,1.907,0,0,0-2.439,2.932l1,.835a9.117,9.117,0,0,0-.424.916l-1.283-.221a1.906,1.906,0,0,0-2.2,1.556h0a1.906,1.906,0,0,0,1.554,2.2l1.282.221a9.235,9.235,0,0,0,.093,1l-1.223.451a1.907,1.907,0,0,0,1.317,3.58L140,224.81a9.253,9.253,0,0,0,.58.822l-.837,1.006a1.906,1.906,0,1,0,2.928,2.441l.834-1a9.2,9.2,0,0,0,.915.424l-.221,1.284a1.905,1.905,0,1,0,3.755.647l.221-1.284a9.165,9.165,0,0,0,1-.094l.45,1.224a1.906,1.906,0,1,0,3.576-1.319l-.452-1.228a9.256,9.256,0,0,0,.822-.581l1,.837a1.907,1.907,0,0,0,2.439-2.933l-1-.835a9.219,9.219,0,0,0,.424-.916l1.282.221a1.907,1.907,0,0,0,2.2-1.556h0a1.907,1.907,0,0,0-1.554-2.2l-1.283-.221a9.1,9.1,0,0,0-.093-1.005l1.223-.451A1.909,1.909,0,0,0,159.353,215.639Zm-6.144,5.172h0a5.447,5.447,0,1,1-10.736-1.85h0a5.447,5.447,0,1,1,10.736,1.85Z" transform="translate(-54.715 -168.169)" fill="#6c63ff"/>
    <path id="Tracé_156" data-name="Tracé 156" d="M290.91,159.087h-2.115a11.26,11.26,0,0,0-.543-2.035l1.832-1.059a1.905,1.905,0,0,0-1.907-3.3l-1.834,1.06a11.45,11.45,0,0,0-1.485-1.486l1.061-1.84a1.905,1.905,0,0,0-3.3-1.9l-1.057,1.833a11.22,11.22,0,0,0-2.029-.542v-2.12a1.906,1.906,0,0,0-3.811,0v2.12a11.215,11.215,0,0,0-2.029.542l-1.057-1.833a1.905,1.905,0,0,0-3.3,1.9l1.061,1.84a11.439,11.439,0,0,0-1.485,1.486l-1.834-1.06a1.905,1.905,0,1,0-1.907,3.3L267,157.051a11.273,11.273,0,0,0-.543,2.035h-2.115a1.905,1.905,0,0,0-1.905,1.905h0a1.905,1.905,0,0,0,1.905,1.905h2.115a11.261,11.261,0,0,0,.543,2.035l-1.832,1.059a1.905,1.905,0,1,0,1.907,3.3l1.834-1.06a11.452,11.452,0,0,0,1.485,1.486l-1.061,1.84a1.905,1.905,0,0,0,3.3,1.9l1.057-1.833a11.236,11.236,0,0,0,2.029.542v2.12a1.906,1.906,0,0,0,3.811,0v-2.12a11.216,11.216,0,0,0,2.029-.542l1.057,1.833a1.905,1.905,0,0,0,3.3-1.9l-1.061-1.84a11.44,11.44,0,0,0,1.485-1.486l1.834,1.06a1.905,1.905,0,0,0,1.907-3.3l-1.832-1.059a11.276,11.276,0,0,0,.543-2.035h2.115a1.905,1.905,0,0,0,1.905-1.905h0A1.905,1.905,0,0,0,290.91,159.087Zm-5.763,1.905h0a7.521,7.521,0,1,1-15.042,0h0a7.521,7.521,0,1,1,15.042,0Z" transform="translate(-157.282 -118.008)" fill="#6c63ff"/>
  </g>
</svg>
