<svg xmlns="http://www.w3.org/2000/svg" width="93" height="93" viewBox="0 0 93 93">
  <g id="seo" transform="translate(0 -0.001)">
    <path id="Tracé_158" data-name="Tracé 158" d="M403.391,85.332a2.325,2.325,0,1,0,2.325,2.325A2.325,2.325,0,0,0,403.391,85.332Zm0,0" transform="translate(-328.216 -69.831)" fill="#6c63ff"/>
    <path id="Tracé_159" data-name="Tracé 159" d="M381.981.455a1.55,1.55,0,0,0-2.192,0l-12.4,12.4a1.552,1.552,0,0,0-.454,1.1V24.8a1.55,1.55,0,0,0,1.55,1.55h10.85a1.549,1.549,0,0,0,1.1-.454l12.4-12.4a1.55,1.55,0,0,0,0-2.192Zm-3.288,22.8h-8.658V14.592l10.85-10.85,8.658,8.658Zm0,0" transform="translate(-300.284 0)" fill="#6c63ff"/>
    <path id="Tracé_160" data-name="Tracé 160" d="M1.55,171.417H6.2v.2a6,6,0,0,0,4.65,5.834v14.118a1.55,1.55,0,0,0,1.55,1.55h9.3a1.55,1.55,0,0,0,1.55-1.55v-6.2h1.562a4.65,4.65,0,0,0,4.638-4.638v-3.28a5.994,5.994,0,0,0,4.275-3.814l26.1,11.6A1.55,1.55,0,0,0,62,183.816v-37.2a1.55,1.55,0,0,0-2.179-1.416l-26.1,11.6a5.989,5.989,0,0,0-5.627-3.982H12.2a6.008,6.008,0,0,0-6,6v.2H1.55A1.55,1.55,0,0,0,0,160.566v9.3a1.55,1.55,0,0,0,1.55,1.55Zm51.15-19.66L58.9,149v32.429l-6.2-2.754Zm-18.6,8.268,15.5-6.89v24.172l-15.5-6.9ZM20.15,183.816v6.2h-6.2v-12.4h6.2Zm6.2-3.087a1.539,1.539,0,0,1-1.538,1.538H23.25v-4.65h3.1ZM9.3,169.866V158.818a2.9,2.9,0,0,1,2.9-2.9H28.1a2.9,2.9,0,0,1,2.9,2.9v12.8a2.9,2.9,0,0,1-2.9,2.9H12.2a2.9,2.9,0,0,1-2.9-2.9Zm-6.2-7.75H6.2v6.2H3.1Zm0,0" transform="translate(0 -118.716)" fill="#6c63ff"/>
    <path id="Tracé_161" data-name="Tracé 161" d="M363.725,333.5a1.55,1.55,0,0,0-2.192,0l-10.962,10.962a1.55,1.55,0,0,0,0,2.192L365.917,362a1.55,1.55,0,0,0,2.192,0l10.96-10.96a1.55,1.55,0,0,0,0-2.192Zm10.19,14.57-8.747-.671-.673-8.747Zm-6.9,10.636-13.153-13.151,7.482-7.481.839,10.887a1.55,1.55,0,0,0,1.425,1.428l10.889.837Zm0,0" transform="translate(-286.522 -272.552)" fill="#6c63ff"/>
    <path id="Tracé_162" data-name="Tracé 162" d="M181.4,31.5a10.828,10.828,0,0,0,8.68-17.335l9.469-9.469L197.356,2.5l-9.469,9.466A10.85,10.85,0,1,0,181.4,31.5Zm0-18.6a7.75,7.75,0,1,1-7.75,7.75A7.75,7.75,0,0,1,181.4,12.9Zm0,0" transform="translate(-139.552 -2.045)" fill="#6c63ff"/>
    <path id="Tracé_163" data-name="Tracé 163" d="M359.952,193.822h7.75v1.55a1.55,1.55,0,0,0,1.55,1.55h12.4a1.55,1.55,0,0,0,1.55-1.55v-7.72a6.219,6.219,0,0,0-4.155-5.848,6.2,6.2,0,1,0-7.189,0,6.221,6.221,0,0,0-2.6,1.77,6.2,6.2,0,0,0-1.938-1.5,4.65,4.65,0,1,0-5.438,0,6.187,6.187,0,0,0-3.481,5.544v4.65a1.55,1.55,0,0,0,1.55,1.55Zm15.5-20.15a3.1,3.1,0,1,1-3.1,3.1A3.1,3.1,0,0,1,375.453,173.672Zm-4.65,18.6v-4.621a3.134,3.134,0,0,1,3.13-3.13h3.041a3.134,3.134,0,0,1,3.129,3.13v6.17h-9.3Zm-6.2-15.5a1.55,1.55,0,1,1-1.55,1.55A1.55,1.55,0,0,1,364.6,176.772Zm-3.1,10.85a3.1,3.1,0,1,1,6.2,0v3.1h-6.2Zm0,0" transform="translate(-293.302 -139.571)" fill="#6c63ff"/>
    <path id="Tracé_164" data-name="Tracé 164" d="M162.118,349.867h-6.2a1.551,1.551,0,0,0-1.1.454l-9.3,9.3a1.55,1.55,0,0,0,0,2.192l17.05,17.05a1.55,1.55,0,0,0,2.192,0l12.4-12.4a1.551,1.551,0,0,0,0-2.192l-13.95-13.95A1.551,1.551,0,0,0,162.118,349.867Zm1.55,25.709L148.81,360.717l7.75-7.75h4.917l12.4,12.4Zm0,0" transform="translate(-118.717 -286.316)" fill="#6c63ff"/>
    <path id="Tracé_165" data-name="Tracé 165" d="M198.77,392.7l6.2-6.2,2.192,2.192-6.2,6.2Zm0,0" transform="translate(-162.665 -316.295)" fill="#6c63ff"/>
    <path id="Tracé_166" data-name="Tracé 166" d="M224.363,418.3l6.2-6.2,2.192,2.192-6.2,6.2Zm0,0" transform="translate(-183.609 -337.243)" fill="#6c63ff"/>
  </g>
</svg>
