<svg xmlns="http://www.w3.org/2000/svg" width="106" height="91.471" viewBox="0 0 106 91.471">
  <g id="web-design" transform="translate(0 -0.383)">
    <path id="Tracé_167" data-name="Tracé 167" d="M272.416,219.5a1.631,1.631,0,0,1-1.156-.48l-11.078-11.077a1.636,1.636,0,0,1,0-2.313L291.2,174.616a1.636,1.636,0,0,1,2.313,0l11.078,11.078a1.636,1.636,0,0,1,0,2.313l-31.016,31.016a1.631,1.631,0,0,1-1.156.48Zm-8.765-12.713,8.765,8.765,28.7-28.7-8.765-8.766Zm0,0" transform="translate(-199.067 -133.185)" fill="#6c63ff"/>
    <path id="Tracé_168" data-name="Tracé 168" d="M237.617,326.867a1.635,1.635,0,0,1-1.552-2.152L241.6,308.1a1.636,1.636,0,0,1,2.708-.639l11.078,11.078a1.636,1.636,0,0,1-.639,2.708l-16.616,5.539A1.632,1.632,0,0,1,237.617,326.867Zm6.253-15.225-3.668,11,11-3.668Zm0,0" transform="translate(-180.884 -235.012)" fill="#6c63ff"/>
    <path id="Tracé_169" data-name="Tracé 169" d="M379.166,214.579a1.63,1.63,0,0,1-1.156-.479l-11.078-11.078a1.635,1.635,0,1,1,2.313-2.313l11.078,11.078a1.635,1.635,0,0,1-1.156,2.792Zm0,0" transform="translate(-280.893 -153.187)" fill="#6c63ff"/>
    <path id="Tracé_170" data-name="Tracé 170" d="M64.1,73.415H10.981A10.993,10.993,0,0,1,0,62.435V11.363A10.993,10.993,0,0,1,10.981.383H71.722A10.992,10.992,0,0,1,82.7,11.363V54.808a1.635,1.635,0,0,1-3.271,0V11.363a7.718,7.718,0,0,0-7.709-7.709H10.981a7.718,7.718,0,0,0-7.709,7.709V62.435a7.718,7.718,0,0,0,7.709,7.709H64.1a1.635,1.635,0,1,1,0,3.271Zm0,0" transform="translate(0)" fill="#6c63ff"/>
    <path id="Tracé_171" data-name="Tracé 171" d="M81.066,85.048H1.635a1.635,1.635,0,1,1,0-3.271H81.066a1.635,1.635,0,1,1,0,3.271Zm0,0" transform="translate(0 -62.39)" fill="#6c63ff"/>
    <path id="Tracé_172" data-name="Tracé 172" d="M85.434,37.977a4.571,4.571,0,1,1,4.571-4.57A4.575,4.575,0,0,1,85.434,37.977Zm0-5.871a1.3,1.3,0,1,0,1.3,1.3A1.3,1.3,0,0,0,85.434,32.107Zm0,0" transform="translate(-61.984 -21.809)" fill="#6c63ff"/>
    <path id="Tracé_173" data-name="Tracé 173" d="M28.957,37.8a4.571,4.571,0,1,1,4.571-4.571A4.576,4.576,0,0,1,28.957,37.8Zm0-5.871a1.3,1.3,0,1,0,1.3,1.3A1.3,1.3,0,0,0,28.957,31.931Zm0,0" transform="translate(-18.693 -21.675)" fill="#6c63ff"/>
    <path id="Tracé_174" data-name="Tracé 174" d="M141.91,38.153a4.571,4.571,0,1,1,4.571-4.57A4.575,4.575,0,0,1,141.91,38.153Zm0-5.871a1.3,1.3,0,1,0,1.3,1.3A1.3,1.3,0,0,0,141.91,32.282Zm0,0" transform="translate(-105.274 -21.944)" fill="#6c63ff"/>
  </g>
</svg>
